# xmcd
#
# Track frame offsets:
#	150
#	10318
#	20185
#	35828
#	43678
#	53435
#	65048
#	75800
#	88113
#	99704
#	111714
#	122684
#	134316
#	144236
#	155207
#	166086
#	175168
#	187872
#	200909
#	211174
#	225158
#	237736
#	250086
#	258826
#	270296
#
# Disc length: 3745 seconds
#
# Revision: 0
# Processed by: cddbd v1.4PL0 Copyright (c) Steve Scherf et al.
# Submitted via: EasyCDDAExtractor 4.6.9.1
#
DISCID=590e9f19
DTITLE=Marcel Martel - Vieux Souvenir
DYEAR=1900
DGENRE=
TTITLE0=Amour De Vacance
TTITLE1=Ce N'etait Qu'un Reve
TTITLE2=Coeur De Maman
TTITLE3=Croyer-Le Ou Non
TTITLE4=Fausse Promesse
TTITLE5=Fleurs De Bois
TTITLE6=Hotel De La Province
TTITLE7=Il Crea L'homme
TTITLE8=Incertitude
TTITLE9=Je Pleure Sans Toi
TTITLE10=Manilua
TTITLE11=Mon Coeur Briser
TTITLE12=Nashville Tenessee
TTITLE13=Notre Amour Renait
TTITLE14=Notre Nid D'amour
TTITLE15=Passion Mexicaine
TTITLE16=Pour Un Baiser
TTITLE17=Romeo and Juliette
TTITLE18=Saison Des Amoureux
TTITLE19=Simple Passager
TTITLE20=Suzi
TTITLE21=Tu Ne M'aura Pas
TTITLE22=Un Coeur,Un Amour,Un Bonheur
TTITLE23=Un Jour Comme Ca
TTITLE24=Vie De Musicine
EXTD=
EXTT0=
EXTT1=
EXTT2=
EXTT3=
EXTT4=
EXTT5=
EXTT6=
EXTT7=
EXTT8=
EXTT9=
EXTT10=
EXTT11=
EXTT12=
EXTT13=
EXTT14=
EXTT15=
EXTT16=
EXTT17=
EXTT18=
EXTT19=
EXTT20=
EXTT21=
EXTT22=
EXTT23=
EXTT24=
PLAYORDER=
